# xmcd CD database file generated by OrangeCD 5.2
#
# Track frame offsets:
#	150
#	14523
#	29242
#	52012
#	68360
#	91730
#	109850
#	122705
#	138838
#	154942
#	179539
#	193598
#	205998
#	223143
#	240513
#	255996
#	268898
#	286935
#
# Disc length: 4031 seconds
#
# Revision: 0
# Processed by: cddbd v1.5.1PL0 Copyright (c) Steve Scherf et al.
# Submitted via: OrangeCD 5.2
#
DISCID=0c0fbd12
DTITLE=Johnny Cash - Southern Accents - cd 1
DYEAR=1900
DGENRE=Country
TTITLE0=Folsom Prison Blues
TTITLE1=Get Rhythm
TTITLE2=Sunday Morning Coming Down
TTITLE3=Ghost Riders In The Sky
TTITLE4=Oh, Bury Me Not
TTITLE5=I Never Picked Cotton
TTITLE6=Unchained
TTITLE7=Row Boat
TTITLE8=Rusty Cage
TTITLE9=Southern Accents
TTITLE10=Memories Are Made Of This
TTITLE11=Ring Of Fire
TTITLE12=I Walk The Line
TTITLE13=Earl Poole Ball - I've Got Jesus In My Soul
TTITLE14=Johnny Cash and June Carter Cash - Jackson
TTITLE15=Johnny Cash and June Carter Cash - If I Were A Carpenter
TTITLE16=Johnny Cash and June Carter Cash - Wabash Canonball
TTITLE17=June Carter Cash - Wildwood Flower
EXTD=
EXTT0=
EXTT1=
EXTT2=
EXTT3=
EXTT4=
EXTT5=
EXTT6=
EXTT7=
EXTT8=
EXTT9=
EXTT10=
EXTT11=
EXTT12=
EXTT13=
EXTT14=
EXTT15=
EXTT16=
EXTT17=
PLAYORDER=
